<svg width="76" height="105" viewBox="0 0 76 105" fill="none" xmlns="http://www.w3.org/2000/svg">
<path d="M34.7427 103.993C34.7427 103.993 27.9599 100.038 27.9599 93.0812V77.5264C27.9599 77.5264 27.96 70.8836 21.3951 67.5659C14.1467 63.9038 14.4171 71.1158 14.4171 71.1158V86.1238C14.4171 86.1238 14.4171 87.0375 14.0716 87.9586C13.4932 89.4864 11.9233 91.0142 7.70948 88.3106C0.911753 83.9445 0.986849 79.6683 1.00187 76.2083C1.0845 61.5747 1.00187 20.1528 1.00187 20.1528L34.615 2.16406V57.0139L46.8208 50.4909C50.1558 48.6037 54.3697 49.2253 56.9761 52.0337C57.0137 52.0786 57.0587 52.1235 57.0963 52.1685C61.0548 56.557 60.927 62.2637 60.927 62.2637V74.396C60.927 74.396 61.5129 84.5511 68.8214 85.8318L34.7351 104L34.7427 103.993Z" fill="white" stroke="black" stroke-width="0.563348" stroke-linejoin="round"/>
<path d="M27.9602 80.506V77.5254C27.9602 77.5254 27.9903 71.2271 21.3953 67.5649C14.2897 63.6257 14.4173 71.1148 14.4173 71.1148V86.1228C14.4173 86.1228 14.4549 88.5118 13.208 89.2458L27.9602 80.506Z" fill="black" stroke="black" stroke-width="0.563348" stroke-linejoin="round"/>
<path d="M34.6223 57.0137L16.5576 66.6746" stroke="black" stroke-width="0.563348" stroke-linejoin="round"/>
<path d="M27.9524 53.479L9.8877 63.1474" stroke="black" stroke-width="0.563348" stroke-linejoin="round"/>
<path d="M27.9524 47.0762L9.8877 56.737" stroke="black" stroke-width="0.563348" stroke-linejoin="round"/>
<path d="M27.9524 40.6733L9.8877 50.3342" stroke="black" stroke-width="0.563348" stroke-linejoin="round"/>
<path d="M27.9524 34.2617L9.8877 43.9301" stroke="black" stroke-width="0.563348" stroke-linejoin="round"/>
<path d="M27.7657 55.3218H28.8623L28.8623 17.8166H27.7657L27.7657 55.3218Z" fill="white"/>
<path d="M9.0098 63.8359H10.1064L10.1064 24.2863H9.0098L9.0098 63.8359Z" fill="white"/>
<path d="M52.2242 75.752L34.167 85.4128" stroke="black" stroke-width="0.563348" stroke-linejoin="round"/>
<path d="M52.2242 69.3403L34.167 79.0087" stroke="black" stroke-width="0.563348" stroke-linejoin="round"/>
<path d="M52.2242 62.9375L34.167 72.6059" stroke="black" stroke-width="0.563348" stroke-linejoin="round"/>
<path d="M52.2242 56.5337L34.167 66.1946" stroke="black" stroke-width="0.563348" stroke-linejoin="round"/>
<path d="M52.8307 60.6828C53.2889 62.645 53.2589 64.0679 53.2589 64.0679V82.9553H51.9819V64.0679C51.9819 64.0679 52.012 62.8097 51.6364 61.0273C51.2083 59.0053 52.38 58.7057 52.8382 60.6828H52.8307Z" fill="white"/>
<path d="M34.4581 67.0348C35.2243 70.3225 35.1717 72.689 35.1717 72.689V92.9619H33.031V72.689C33.031 72.689 33.0761 70.5921 32.4451 67.6114C31.7315 64.2339 33.6845 63.7321 34.4581 67.0348Z" fill="white"/>
<path d="M51.1771 54.8199L49.7725 54.6851C49.81 54.73 49.8551 54.7749 49.8926 54.8199C53.8511 59.2084 53.7234 64.9151 53.7234 64.9151V77.0474H55.0003V64.9151C55.0003 64.9151 55.128 59.2084 51.1696 54.8199C51.132 54.7749 51.0869 54.73 51.0494 54.6851" fill="white"/>
<path d="M45.8895 92.6166C44.4173 93.2157 42.4794 92.9311 41.0973 92.2122C40.4664 91.8826 39.903 91.4034 39.55 90.7892C39.2796 90.3174 39.1594 89.6809 39.4974 89.254C39.8655 88.7822 40.5941 88.7972 41.1649 88.9994C42.2465 89.3813 43.1329 90.1976 43.8765 91.0364C44.515 91.7479 45.6191 92.8712 45.6642 93.8747C45.7393 95.6047 43.5385 95.5298 42.532 94.9007C40.9771 93.9346 39.873 92.3919 38.5059 91.1787C39.0693 91.6729 39.8354 92.8412 39.0317 93.4553C38.7162 93.695 38.1905 93.7399 37.92 93.8673C37.5895 94.0245 37.0187 94.5637 36.6807 94.6611" stroke="black" stroke-width="0.563348" stroke-linejoin="round"/>
<path d="M9.8877 37.5266L27.9524 27.8582V21.4551L9.8877 31.1159V37.5266Z" fill="white" stroke="black" stroke-width="0.563348" stroke-linejoin="round"/>
<path d="M74.8755 34.6784C74.8755 34.6784 74.8754 34.6784 74.8753 34.6785C74.8745 34.679 74.8703 34.6817 74.8611 34.6869C74.8509 34.6928 74.8372 34.7002 74.8197 34.7094C74.7848 34.7277 74.7388 34.7507 74.6822 34.778C74.5691 34.8324 74.4195 34.901 74.2428 34.9788C73.8895 35.1345 73.4337 35.3247 72.9566 35.5091C72.4787 35.6937 71.9836 35.8707 71.5504 36.0011C71.2202 36.1006 70.9465 36.1663 70.7496 36.1937L67.7352 31.1389C67.6461 30.9895 67.4556 30.9362 67.3019 31.0176L60.1599 34.8022L58.6634 35.2931L61.7611 28.2713C61.8238 28.129 61.7775 27.9622 61.6503 27.8726L54.1188 22.5692L54.1189 22.5692L54.115 22.5666C53.8822 22.4075 53.6824 22.1744 53.5408 21.8854C53.3992 21.5964 53.3228 21.2651 53.3218 20.9253L53.3218 20.9248L53.2376 2.26319L53.2376 2.26319L53.2375 2.25804C53.2347 2.1197 53.1646 2.01452 53.0845 1.94902C53.0136 1.89108 52.9339 1.86176 52.8745 1.84514C52.754 1.8115 52.6082 1.80147 52.4695 1.79953C52.1849 1.79554 51.8168 1.82593 51.4752 1.85571C51.4452 1.85833 51.4154 1.86094 51.3859 1.86353C51.2583 1.87471 51.1355 1.88547 51.0206 1.8945C51.2379 1.74661 51.4939 1.58392 51.7498 1.42651C52.0598 1.23578 52.3653 1.05543 52.5936 0.922591C52.7076 0.856227 52.8022 0.801846 52.8682 0.764105L52.9445 0.720582L52.9636 0.709758C53.5466 0.420974 53.994 0.340799 54.3259 0.328341C54.4945 0.322016 54.6387 0.332924 54.7652 0.346404C54.792 0.349264 54.8207 0.352635 54.8503 0.356109C54.9231 0.36465 55.0012 0.373821 55.0701 0.377602C55.0872 0.385425 55.111 0.397095 55.1425 0.41347C55.2242 0.455884 55.3392 0.520314 55.4852 0.605473C55.7762 0.775204 56.1766 1.01922 56.6516 1.31449C57.6008 1.90458 58.8393 2.69402 60.0776 3.49056C62.5588 5.08658 65.0221 6.70018 65.1583 6.79644L65.1582 6.79656L65.1663 6.8019L74.6132 13.0686C74.6137 13.069 74.6142 13.0693 74.6147 13.0696C74.7109 13.136 74.8773 13.3193 75.0557 13.5623C75.2284 13.7976 75.3786 14.0419 75.4487 14.1907C75.5991 14.5101 75.6849 14.8162 75.6761 15.1509L75.676 15.1509V15.1595V33.048C75.6726 33.3867 75.5944 33.7161 75.4518 34.0029C75.309 34.2901 75.1085 34.5212 74.8755 34.6784ZM74.8755 34.6784C74.8755 34.6784 74.8754 34.6784 74.8754 34.6784C74.8754 34.6784 74.8755 34.6784 74.8755 34.6784Z" fill="#1F1F1F" stroke="#1F1F1F" stroke-width="0.652997" stroke-linejoin="round"/>
<path d="M70.4585 36.2973H70.4561C70.2152 36.2974 69.9742 36.2221 69.7576 36.0727L69.7551 36.071L64.2305 32.3343C64.1304 32.2666 64.0011 32.2597 63.8944 32.3163L57.4629 35.7312L58.5033 29.57C58.5243 29.446 58.4722 29.3211 58.3693 29.2487L50.7742 23.9023C50.7739 23.9021 50.7736 23.9019 50.7733 23.9017C50.5589 23.7482 50.3754 23.5282 50.245 23.2578C50.1145 22.9871 50.0434 22.6783 50.0408 22.3612C50.0408 22.361 50.0408 22.3608 50.0408 22.3607L49.9566 3.70018L49.9566 3.6972C49.9533 3.45579 49.9912 3.21698 50.0672 2.99547C50.1432 2.77394 50.255 2.57611 50.3937 2.41262L50.3937 2.41262L50.3943 2.41182C50.6768 2.07672 51.0466 1.90017 51.419 1.89681C51.6591 1.89623 51.8994 1.97139 52.1152 2.121L52.1152 2.12102L52.1182 2.12304L71.4943 15.2376L71.4949 15.2381C71.7222 15.3911 71.9171 15.6188 72.0532 15.9025C72.1893 16.1863 72.2595 16.5117 72.2537 16.8437L71.9215 34.5579C71.9215 34.558 71.9215 34.558 71.9215 34.5581C71.9119 35.041 71.7421 35.4909 71.4616 35.8133C71.1825 36.1342 70.8208 36.2997 70.4585 36.2973Z" fill="white" stroke="#1F1F1F" stroke-width="0.652997" stroke-linejoin="round"/>
<path d="M58.8284 19.9663C58.8285 19.9662 58.8285 19.9661 58.8286 19.966L58.9568 20.1087C59.2 19.6357 59.5328 19.2773 59.9552 19.0334C60.1536 18.9189 60.3233 18.8173 60.4641 18.7286C60.6113 18.6362 60.7297 18.553 60.8193 18.4791C61.0049 18.335 61.1233 18.1743 61.1745 17.9969M58.8284 19.9663C59.0788 19.4795 59.4213 19.1108 59.8553 18.8603C60.0532 18.746 60.222 18.6448 60.3619 18.5567L60.362 18.5567C60.5078 18.4652 60.6236 18.3837 60.7101 18.3124L60.7117 18.3111L60.7117 18.3111C60.8903 18.1725 60.9948 18.0246 61.0384 17.8742M58.8284 19.9663C58.5776 20.4467 58.4506 21.0026 58.4506 21.6345L58.4506 22.865C58.4506 22.9363 58.4743 23.026 58.5353 23.1124C58.5879 23.1869 58.6495 23.2318 58.6976 23.2596L60.8769 24.5178C60.924 24.545 60.9855 24.5703 61.0372 24.5524C61.0949 24.5324 61.1142 24.4685 61.1142 24.4029L61.1142 23.3165C61.1142 22.9791 61.1766 22.7087 61.2997 22.5017M58.8284 19.9663L61.1745 22.3536M61.0384 17.8742C61.0383 17.8744 61.0382 17.8746 61.0382 17.8748L61.1745 17.9969M61.0384 17.8742C61.0384 17.874 61.0385 17.8738 61.0385 17.8736L61.1745 17.9969M61.0384 17.8742C61.0852 17.7047 61.1099 17.4831 61.1099 17.2058C61.1099 16.7088 60.9824 16.2321 60.7332 15.7669C60.4855 15.3047 60.1754 14.9671 59.792 14.7458C59.4157 14.5285 59.1047 14.5071 58.8498 14.681C58.5947 14.855 58.4646 15.1826 58.4646 15.6785L58.4646 17.3303C58.4646 17.385 58.4527 17.4491 58.404 17.4772C58.3553 17.5053 58.2938 17.4836 58.2464 17.4562L56.0192 16.1703C55.9718 16.1429 55.9103 16.0936 55.8616 16.0093C55.8129 15.925 55.801 15.8471 55.801 15.7924L55.801 14.1406C55.801 13.2637 55.9829 12.5678 56.3481 12.0577M61.1745 17.9969C61.2257 17.8122 61.2513 17.5757 61.2513 17.2874C61.2513 16.7553 61.1137 16.2325 60.8385 15.7188C60.5633 15.2052 60.2144 14.8264 59.792 14.5825C59.376 14.3424 59.0272 14.3183 58.7456 14.5105C58.464 14.7026 58.3232 15.0648 58.3232 15.5969L58.3232 17.2486C58.3232 17.3078 58.2976 17.3225 58.2464 17.293L56.0192 16.007C55.968 15.9775 55.9424 15.9331 55.9424 15.874L55.9424 14.2223C55.9424 13.3724 56.1184 12.7017 56.4704 12.2102M56.4704 12.2102L56.3478 12.0581C56.3479 12.058 56.348 12.0579 56.3481 12.0577M56.4704 12.2102C56.816 11.7151 57.28 11.4324 57.8624 11.3622M56.4704 12.2102L56.3484 12.0573C56.3483 12.0575 56.3482 12.0576 56.3481 12.0577M56.3481 12.0577C56.7053 11.5462 57.1859 11.2531 57.7888 11.1803M57.8624 11.3622L57.7883 11.1804C57.7885 11.1803 57.7886 11.1803 57.7888 11.1803M57.8624 11.3622C58.4448 11.2846 59.088 11.449 59.792 11.8555C60.5025 12.2656 61.1489 12.8421 61.7313 13.5848C62.3137 14.3276 62.7745 15.1479 63.1137 16.0458M57.8624 11.3622L57.7893 11.1802C57.7891 11.1803 57.789 11.1803 57.7888 11.1803M57.7888 11.1803C58.394 11.0998 59.0629 11.2712 59.792 11.6922C60.527 12.1166 61.1989 12.7152 61.8044 13.4873C62.4081 14.2572 62.8859 15.108 63.2367 16.0364M63.1137 16.0458L63.2363 16.0353C63.2364 16.0357 63.2366 16.0361 63.2367 16.0364M63.1137 16.0458C63.4593 16.9401 63.6321 17.8122 63.6321 18.6621C63.6321 19.1424 63.5873 19.5563 63.4977 19.9036C63.4017 20.2325 63.2289 20.5355 62.9793 20.8127C62.7297 21.0824 62.3617 21.3873 61.8753 21.7272C61.5489 21.9231 61.3153 22.1319 61.1745 22.3536M63.1137 16.0458L63.2372 16.0376C63.237 16.0372 63.2369 16.0368 63.2367 16.0364M63.2367 16.0364C63.5951 16.9641 63.7735 17.8674 63.7735 18.7437C63.7735 19.2357 63.7276 19.6629 63.6346 20.0236L63.6336 20.0274L63.6335 20.0273C63.5324 20.3738 63.3519 20.6881 63.096 20.9722L63.0953 20.973C62.8408 21.248 62.4683 21.5561 61.9801 21.8973L61.9763 21.9L61.9762 21.8998C61.655 22.0925 61.4317 22.2942 61.2997 22.5017M61.2997 22.5017C61.2999 22.5013 61.3001 22.501 61.3003 22.5006L61.1745 22.3536M61.2997 22.5017C61.2995 22.502 61.2993 22.5023 61.299 22.5027L61.1745 22.3536M58.6976 27.4388L60.8769 28.6971C60.9307 28.7281 60.997 28.7508 61.0488 28.7208C61.1007 28.6909 61.1142 28.6221 61.1142 28.56L61.1142 26.0325C61.1142 25.9669 61.0949 25.8807 61.0372 25.794C60.9855 25.7164 60.924 25.6707 60.8769 25.6435L58.6976 24.3853C58.6495 24.3575 58.5879 24.3311 58.5353 24.3449C58.4743 24.3609 58.4506 24.4233 58.4506 24.4946L58.4506 27.0221C58.4506 27.0885 58.4671 27.1765 58.5233 27.268C58.577 27.3554 58.6438 27.4078 58.6976 27.4388Z" fill="#1F1F1F" stroke="#1F1F1F" stroke-width="0.3265" stroke-linejoin="round"/>
</svg>
